<?xml version="1.0" encoding="UTF-8"?>
<svg xmlns="http://www.w3.org/2000/svg" viewBox="0 0 227.62 54.93">
  <defs>
    <style>.cls-1{fill:#fff;}</style>
  </defs>
  <g id="Layer_2" data-name="Layer 2">
    <g id="logos">
      <g id="Layer_2-2" data-name="Layer 2">
        <g id="Layer_1-2" data-name="Layer 1-2">
          <path class="cls-1" d="M16.39,54.76V38.09h6.12a11.62,11.62,0,0,1,2.94.31,5.54,5.54,0,0,1,2,.91,3.33,3.33,0,0,1,1.12,1.42,4.72,4.72,0,0,1,.35,1.85,3.58,3.58,0,0,1-.16,1.08,3.06,3.06,0,0,1-.51,1,4.13,4.13,0,0,1-.88.84,5.94,5.94,0,0,1-1.26.63,4.49,4.49,0,0,1,2.43,1.27,3.26,3.26,0,0,1,.71,2.36,4.8,4.8,0,0,1-.4,2,4.7,4.7,0,0,1-1.16,1.6,5.64,5.64,0,0,1-2,1.07,8.76,8.76,0,0,1-2.65.38Zm3.81-9.65h2A7.43,7.43,0,0,0,23.37,45a2.35,2.35,0,0,0,.86-.32,1.42,1.42,0,0,0,.56-.63,2.48,2.48,0,0,0,.18-1,3,3,0,0,0-.14-1,1.41,1.41,0,0,0-.46-.62,1.88,1.88,0,0,0-.78-.34A5.35,5.35,0,0,0,22.46,41H20.25Zm0,2.54v4.13h2.71a3.19,3.19,0,0,0,1.27-.19A2,2,0,0,0,25,51.1a1.67,1.67,0,0,0,.36-.7,2.61,2.61,0,0,0,.12-.79,2.56,2.56,0,0,0-.13-.82,1.3,1.3,0,0,0-.41-.62,2,2,0,0,0-.77-.38,3.88,3.88,0,0,0-1.27-.14Z"></path>
          <path class="cls-1" d="M54.18,54.76h-3a1.43,1.43,0,0,1-.83-.23,1.17,1.17,0,0,1-.44-.61l-1-2.9H42.58l-1,2.9a1.35,1.35,0,0,1-.45.58,1.25,1.25,0,0,1-.81.26h-3l6.44-16.67h4ZM43.49,48.41H48L46.5,43.85c-.09-.29-.21-.63-.34-1s-.27-.81-.39-1.27c-.13.46-.26.89-.39,1.27s-.25.75-.36,1Z"></path>
          <path class="cls-1" d="M66.71,48.6v6.16H62.84V38.09h5.42a11.12,11.12,0,0,1,3.09.36,6,6,0,0,1,2.06,1,3.94,3.94,0,0,1,1.19,1.58,5.32,5.32,0,0,1,.33,2,5.24,5.24,0,0,1-.22,1.53,4,4,0,0,1-.65,1.27,4.94,4.94,0,0,1-1,1.1,6,6,0,0,1-1.43.78,4.57,4.57,0,0,1,.8.52,2.78,2.78,0,0,1,.58.7l3.54,5.79H73a1.47,1.47,0,0,1-1.4-.74l-2.76-4.82a1.14,1.14,0,0,0-.44-.46,1.23,1.23,0,0,0-.68-.14Zm0-2.67h1.55a3.69,3.69,0,0,0,1.35-.23,2.38,2.38,0,0,0,.9-.54,2.33,2.33,0,0,0,.52-.83,3.57,3.57,0,0,0,.15-1,2.1,2.1,0,0,0-.71-1.71A3.35,3.35,0,0,0,68.26,41H66.71Z"></path>
          <path class="cls-1" d="M96,50.45a.66.66,0,0,1,.28,0,.8.8,0,0,1,.27.18L98,52.24a6.32,6.32,0,0,1-2.54,2,9.76,9.76,0,0,1-7,0A7.33,7.33,0,0,1,86,52.46a7.76,7.76,0,0,1-1.6-2.69,9.8,9.8,0,0,1-.56-3.34A9.12,9.12,0,0,1,84.45,43a8.12,8.12,0,0,1,1.79-2.69A7.73,7.73,0,0,1,89,38.56a9.76,9.76,0,0,1,5.29-.47,10.21,10.21,0,0,1,1.55.45,8.22,8.22,0,0,1,1.27.7,7.16,7.16,0,0,1,1.08.9L96.91,41.9a2,2,0,0,1-.29.29,1,1,0,0,1-.88,0L95.36,42l-.45-.28a2.69,2.69,0,0,0-.59-.29,3.48,3.48,0,0,0-.78-.22,5.36,5.36,0,0,0-1.06-.1,4.62,4.62,0,0,0-1.91.38,4,4,0,0,0-1.5,1,5,5,0,0,0-1,1.68,6.17,6.17,0,0,0-.35,2.21,6.49,6.49,0,0,0,.35,2.27A5.26,5.26,0,0,0,89,50.38a4,4,0,0,0,1.41,1,4,4,0,0,0,1.71.36,7.69,7.69,0,0,0,1,0,3.79,3.79,0,0,0,.81-.18,3.15,3.15,0,0,0,.7-.32,4.1,4.1,0,0,0,.68-.5.92.92,0,0,1,.3-.18A.71.71,0,0,1,96,50.45Z"></path>
          <path class="cls-1" d="M117.82,38.09v3H111v3.88h5.23V47.8H111v4h6.83v3H107.11V38.09Z"></path>
          <path class="cls-1" d="M131.19,51.67h6.17v3.09h-10V38.09h3.81Z"></path>
          <path class="cls-1" d="M162,46.43a8.77,8.77,0,0,1-.62,3.35,8,8,0,0,1-4.47,4.51,10,10,0,0,1-7.08,0,8,8,0,0,1-2.74-1.81,8.08,8.08,0,0,1-1.76-2.7,9.41,9.41,0,0,1,0-6.72,7.89,7.89,0,0,1,4.49-4.48,9.09,9.09,0,0,1,3.54-.66,9.35,9.35,0,0,1,3.54.66,8.44,8.44,0,0,1,2.72,1.8,7.91,7.91,0,0,1,1.75,2.7A8.9,8.9,0,0,1,162,46.43Zm-3.95,0a6.89,6.89,0,0,0-.31-2.22,4.7,4.7,0,0,0-.93-1.68,3.9,3.9,0,0,0-1.46-1.05,5.54,5.54,0,0,0-4,0,3.79,3.79,0,0,0-1.48,1.05,4.68,4.68,0,0,0-.92,1.68,7.23,7.23,0,0,0-.32,2.22,7.34,7.34,0,0,0,.32,2.23,4.68,4.68,0,0,0,.92,1.68,3.87,3.87,0,0,0,1.48,1,5.77,5.77,0,0,0,4,0,4,4,0,0,0,1.46-1,4.7,4.7,0,0,0,.93-1.68A7,7,0,0,0,158.06,46.43Z"></path>
          <path class="cls-1" d="M173.64,38.09l.31.09.26.17a4.12,4.12,0,0,1,.28.31l7.91,10V38.09h3.4V54.76h-2a2.28,2.28,0,0,1-.77-.14,1.68,1.68,0,0,1-.59-.5l-7.85-9.93a3.37,3.37,0,0,0,.07.85,3.48,3.48,0,0,1,0,.79v8.89h-3.41V38.09h2.39Z"></path>
          <path class="cls-1" d="M211.26,54.76h-3a1.48,1.48,0,0,1-.84-.23,1.22,1.22,0,0,1-.44-.61L206,51H199.6l-1,2.9a1.32,1.32,0,0,1-.44.58,1.28,1.28,0,0,1-.82.26h-3l6.51-16.67h4Zm-10.69-6.35h4.54l-1.52-4.56-.36-1c-.12-.39-.26-.81-.39-1.27-.13.46-.24.89-.38,1.27s-.24.75-.36,1Z"></path>
          <rect class="cls-1" x="71.66" y="0.15" width="2.31" height="23.47"></rect>
          <path class="cls-1" d="M97.85,5a2.24,2.24,0,0,1-.49.57,1.15,1.15,0,0,1-.69.19,1.6,1.6,0,0,1-.77-.22L95,5a7.66,7.66,0,0,0-1.27-.51,4.94,4.94,0,0,0-1.57-.23,3.3,3.3,0,0,0-2.23.63,2.19,2.19,0,0,0-.75,1.74,1.61,1.61,0,0,0,.45,1.16,4.22,4.22,0,0,0,1.16.8,16.33,16.33,0,0,0,1.65.61c.63.18,1.27.39,1.91.62a19.44,19.44,0,0,1,1.89.8,6.18,6.18,0,0,1,1.65,1.17,5.44,5.44,0,0,1,1.21,1.74A6.32,6.32,0,0,1,99.49,16a8.11,8.11,0,0,1-.56,3,7,7,0,0,1-1.61,2.44A7.49,7.49,0,0,1,94.72,23a9.62,9.62,0,0,1-3.52.6,12.53,12.53,0,0,1-2.2-.22,13.26,13.26,0,0,1-2.15-.63,11.58,11.58,0,0,1-2-1,8.22,8.22,0,0,1-1.61-1.26L84.85,18A1.43,1.43,0,0,1,86,17.38a1.86,1.86,0,0,1,1,.31l1.09.66a8.54,8.54,0,0,0,1.4.66,5.45,5.45,0,0,0,1.88.3,3.68,3.68,0,0,0,2.27-.63,2.59,2.59,0,0,0,.8-2.05A1.92,1.92,0,0,0,94,15.36a3.39,3.39,0,0,0-1.15-.83,9.84,9.84,0,0,0-1.65-.59c-.61-.18-1.27-.35-1.89-.57a13.43,13.43,0,0,1-1.88-.76,6,6,0,0,1-1.64-1.18,5.94,5.94,0,0,1-1.17-1.84,7.28,7.28,0,0,1-.44-2.73,6.32,6.32,0,0,1,.53-2.54,6.35,6.35,0,0,1,1.54-2.2A7.37,7.37,0,0,1,88.78.57,9.17,9.17,0,0,1,92.1,0a12,12,0,0,1,2.08.17,11.39,11.39,0,0,1,1.91.49,10.76,10.76,0,0,1,1.69.78,8.71,8.71,0,0,1,1.41,1Z"></path>
          <path class="cls-1" d="M115,19.15a4.91,4.91,0,0,0,1.93-.37,3.68,3.68,0,0,0,1.44-1,4.53,4.53,0,0,0,.9-1.62,7.29,7.29,0,0,0,.3-2.17V.26h5.37V14a10.74,10.74,0,0,1-.68,3.89,8.64,8.64,0,0,1-5.08,5.08,12.44,12.44,0,0,1-8.3,0,8.75,8.75,0,0,1-3.13-2,8.44,8.44,0,0,1-2-3.07A10.92,10.92,0,0,1,105,14V.26h5.36V14a7,7,0,0,0,.32,2.17,4.4,4.4,0,0,0,.89,1.63,3.64,3.64,0,0,0,1.45,1A4.8,4.8,0,0,0,115,19.15Z"></path>
          <path class="cls-1" d="M144,14.06l.57,1.26c.17-.45.36-.91.57-1.34s.4-.88.61-1.27l5.94-11.64A1.67,1.67,0,0,1,152,.6a.92.92,0,0,1,.35-.24,1,1,0,0,1,.47-.09h4.7v23.1h-4.72V10.08a15.34,15.34,0,0,1,.1-2.09l-6.13,11.88a2,2,0,0,1-.78.84,2.17,2.17,0,0,1-1.09.29h-.73a2.17,2.17,0,0,1-1.11-.29,2,2,0,0,1-.77-.84L136.14,8c0,.38.08.75.1,1.11s0,.71,0,1V23.37h-4.72V.27h4.71a1.09,1.09,0,0,1,.47.09,1,1,0,0,1,.37.24,1.82,1.82,0,0,1,.31.47l6,11.74A9.82,9.82,0,0,1,144,14.06Z"></path>
          <path class="cls-1" d="M177,14.06c.19.44.38.88.56,1.26.17-.45.36-.91.57-1.34s.4-.88.62-1.27l5.93-11.64A2.21,2.21,0,0,1,185,.6a1,1,0,0,1,.39-.24,1.09,1.09,0,0,1,.47-.09h4.71v23.1h-4.73V10.08a15.34,15.34,0,0,1,.1-2.09l-6.14,11.88a1.93,1.93,0,0,1-.76.84,2.2,2.2,0,0,1-1.1.29h-.74a2.2,2.2,0,0,1-1.09-.29,2,2,0,0,1-.77-.84L169.16,8c0,.38.08.75.09,1.11s0,.71,0,1V23.37h-4.74V.27h4.71a1,1,0,0,1,.47.09.91.91,0,0,1,.37.24,1.67,1.67,0,0,1,.33.47l6,11.74C176.56,13.2,176.76,13.62,177,14.06Z"></path>
          <path class="cls-1" d="M203.37,23.37H198V.26h5.39Z"></path>
          <path class="cls-1" d="M227.62.26V4.51h-6.5V23.37h-5.37V4.51h-6.5V.26Z"></path>
          <path class="cls-1" d="M14.6,5a2,2,0,0,1-.51.57,1.07,1.07,0,0,1-.67.19,1.57,1.57,0,0,1-.79-.22l-1-.52a6.75,6.75,0,0,0-1.21-.51,4.84,4.84,0,0,0-1.56-.23,3.35,3.35,0,0,0-2.25.63A2.21,2.21,0,0,0,5.93,6.6a1.65,1.65,0,0,0,.44,1.16,4.26,4.26,0,0,0,1.17.8,14.22,14.22,0,0,0,1.65.61c.62.18,1.27.39,1.89.62a18.78,18.78,0,0,1,1.91.8,6.78,6.78,0,0,1,1.65,1.17,5.5,5.5,0,0,1,1.15,1.74A6,6,0,0,1,16.25,16a8.32,8.32,0,0,1-.56,3,7.21,7.21,0,0,1-1.61,2.44A7.77,7.77,0,0,1,11.45,23a9.59,9.59,0,0,1-3.52.6,12.41,12.41,0,0,1-2.19-.22,12.54,12.54,0,0,1-2.17-.63,12.36,12.36,0,0,1-2-1A8.46,8.46,0,0,1,0,20.56L1.59,18a1.2,1.2,0,0,1,.49-.46,1.3,1.3,0,0,1,.69-.18,1.71,1.71,0,0,1,1,.31l1.09.66A7.93,7.93,0,0,0,6.25,19a5.21,5.21,0,0,0,1.87.31,3.56,3.56,0,0,0,2.26-.64,2.46,2.46,0,0,0,.82-2,2,2,0,0,0-.45-1.27,3.4,3.4,0,0,0-1.17-.84A10.21,10.21,0,0,0,8,14c-.63-.18-1.27-.36-1.89-.57a13,13,0,0,1-1.9-.77,6.21,6.21,0,0,1-1.6-1.2A5.63,5.63,0,0,1,1.4,9.59,7.44,7.44,0,0,1,.91,6.87a6.71,6.71,0,0,1,.52-2.54A6.66,6.66,0,0,1,3,2.13,7.37,7.37,0,0,1,5.52.59,9.11,9.11,0,0,1,8.91,0a12.39,12.39,0,0,1,2,.17,11.39,11.39,0,0,1,1.91.49,10.36,10.36,0,0,1,1.69.78,7.92,7.92,0,0,1,1.41,1Z"></path>
          <path class="cls-1" d="M20.18,23.37V.26h8.51A16,16,0,0,1,32.77.7,7.71,7.71,0,0,1,35.51,2a4.76,4.76,0,0,1,1.55,2,6.86,6.86,0,0,1,.48,2.54A5.16,5.16,0,0,1,37.32,8a4.51,4.51,0,0,1-.7,1.36,5.28,5.28,0,0,1-1.26,1.14,8.51,8.51,0,0,1-1.76.94A6.22,6.22,0,0,1,37,13.23a4.6,4.6,0,0,1,1.13,3.19,6.66,6.66,0,0,1-.56,2.74,6.47,6.47,0,0,1-1.67,2.21,8,8,0,0,1-2.77,1.48,11.6,11.6,0,0,1-3.7.54ZM25.54,10h2.79a8.5,8.5,0,0,0,1.6-.13,3,3,0,0,0,1.27-.44A2.06,2.06,0,0,0,32,8.55a3.27,3.27,0,0,0,.26-1.41A4,4,0,0,0,32,5.77a2,2,0,0,0-.64-.88,2.55,2.55,0,0,0-1.08-.47,6.77,6.77,0,0,0-1.56-.15h-3.2Zm0,3.59v5.77h3.81a4.69,4.69,0,0,0,1.7-.3,2.71,2.71,0,0,0,1.07-.69,2.54,2.54,0,0,0,.52-1,4.46,4.46,0,0,0,.14-1.09,3.39,3.39,0,0,0-.17-1.14,2,2,0,0,0-.57-.87A2.86,2.86,0,0,0,31,13.75a6.45,6.45,0,0,0-1.69-.19Z"></path>
          <path class="cls-1" d="M57.8,17.39a1,1,0,0,1,.38.08.91.91,0,0,1,.37.24L60.67,20a8.87,8.87,0,0,1-3.52,2.75,12.27,12.27,0,0,1-5,.93,12,12,0,0,1-4.73-.89,10.39,10.39,0,0,1-3.51-2.43,10.87,10.87,0,0,1-2.22-3.8,13.79,13.79,0,0,1-.79-4.71,12.26,12.26,0,0,1,.89-4.75A11.2,11.2,0,0,1,48.16.87,13.11,13.11,0,0,1,53,0a12.63,12.63,0,0,1,2.45.23,11.45,11.45,0,0,1,2.14.64,9.75,9.75,0,0,1,1.84,1A8.27,8.27,0,0,1,61,3.1L59.15,5.51a3.18,3.18,0,0,1-.41.41,1.15,1.15,0,0,1-.67.18A1.13,1.13,0,0,1,57.53,6L57,5.66l-.62-.4a5.18,5.18,0,0,0-.82-.4,6.76,6.76,0,0,0-1.09-.3A7.24,7.24,0,0,0,53,4.43a6.78,6.78,0,0,0-2.67.51,5.82,5.82,0,0,0-2,1.49,6.68,6.68,0,0,0-1.35,2.32,9.07,9.07,0,0,0-.48,3.06A9.7,9.7,0,0,0,46.92,15a6.83,6.83,0,0,0,1.27,2.32,5.66,5.66,0,0,0,4.32,1.93,9.88,9.88,0,0,0,1.33-.07A6.35,6.35,0,0,0,55,18.9a4.56,4.56,0,0,0,1-.45,6.87,6.87,0,0,0,.94-.69,1.36,1.36,0,0,1,.41-.26A1.25,1.25,0,0,1,57.8,17.39Z"></path>
        </g>
      </g>
    </g>
  </g>
</svg>
