<svg xmlns="http://www.w3.org/2000/svg" viewBox="0 0 39.69 39.69"><defs><style>.cls-1{fill:#e1306c;}.cls-2{fill:#fff;}</style></defs><title>icn_insta</title><g id="Layer_2" data-name="Layer 2"><g id="Layer_1-2" data-name="Layer 1"><circle class="cls-1" cx="19.84" cy="19.84" r="19.84"/><g id="post-instagram"><path class="cls-2" d="M27.91,9.76H11.78a2,2,0,0,0-2,2V27.91a2,2,0,0,0,2,2H27.91a2,2,0,0,0,2-2V11.78A2,2,0,0,0,27.91,9.76Zm-8.07,6a4,4,0,1,1-4,4A4,4,0,0,1,19.84,15.81Zm-7.56,12.1a.48.48,0,0,1-.5-.5V18.83h2.12a3.43,3.43,0,0,0-.1,1,6,6,0,0,0,12.1,0,3.43,3.43,0,0,0-.1-1h2.12v8.57a.48.48,0,0,1-.5.5ZM27.91,14.3a.48.48,0,0,1-.5.5h-2a.48.48,0,0,1-.5-.5v-2a.48.48,0,0,1,.5-.5h2a.48.48,0,0,1,.5.5Z"/></g></g></g></svg>