<svg xmlns="http://www.w3.org/2000/svg" width="23" height="18" viewBox="0 0 23 18">
  <metadata><?xpacket begin="﻿" id="W5M0MpCehiHzreSzNTczkc9d"?>
<x:xmpmeta xmlns:x="adobe:ns:meta/" x:xmptk="Adobe XMP Core 5.6-c138 79.159824, 2016/09/14-01:09:01        ">
   <rdf:RDF xmlns:rdf="http://www.w3.org/1999/02/22-rdf-syntax-ns#">
      <rdf:Description rdf:about=""/>
   </rdf:RDF>
</x:xmpmeta>
                                                                                                    
                                                                                                    
                                                                                                    
                                                                                                    
                                                                                                    
                                                                                                    
                                                                                                    
                                                                                                    
                                                                                                    
                                                                                                    
                                                                                                    
                                                                                                    
                                                                                                    
                                                                                                    
                                                                                                    
                                                                                                    
                                                                                                    
                                                                                                    
                                                                                                    
                                                                                                    
                           
<?xpacket end="w"?></metadata>
<defs>
    <style>
      .cls-1 {
        fill: #fff;
        fill-rule: evenodd;
      }
    </style>
  </defs>
  <path id="Forma_1" data-name="Forma 1" class="cls-1" d="M599.366,679.332a9.713,9.713,0,0,1-3,1.1A4.786,4.786,0,0,0,592.924,679a4.635,4.635,0,0,0-4.719,4.545,4.422,4.422,0,0,0,.122,1.035,13.576,13.576,0,0,1-9.725-4.749,4.391,4.391,0,0,0-.638,2.284,4.5,4.5,0,0,0,2.1,3.783,4.847,4.847,0,0,1-2.137-.571v0.057a4.6,4.6,0,0,0,3.784,4.458,4.905,4.905,0,0,1-2.132.077,4.708,4.708,0,0,0,4.407,3.157,9.7,9.7,0,0,1-5.859,1.944,10.184,10.184,0,0,1-1.126-.062A13.729,13.729,0,0,0,584.233,697a13.078,13.078,0,0,0,13.424-12.932l-0.015-.589A9.318,9.318,0,0,0,600,681.13a9.733,9.733,0,0,1-2.709.716A4.61,4.61,0,0,0,599.366,679.332Z" transform="translate(-577 -679)"/>
</svg>
