<svg xmlns="http://www.w3.org/2000/svg" width="12" height="23" viewBox="0 0 12 23">
  <metadata><?xpacket begin="﻿" id="W5M0MpCehiHzreSzNTczkc9d"?>
<x:xmpmeta xmlns:x="adobe:ns:meta/" x:xmptk="Adobe XMP Core 5.6-c138 79.159824, 2016/09/14-01:09:01        ">
   <rdf:RDF xmlns:rdf="http://www.w3.org/1999/02/22-rdf-syntax-ns#">
      <rdf:Description rdf:about=""/>
   </rdf:RDF>
</x:xmpmeta>
                                                                                                    
                                                                                                    
                                                                                                    
                                                                                                    
                                                                                                    
                                                                                                    
                                                                                                    
                                                                                                    
                                                                                                    
                                                                                                    
                                                                                                    
                                                                                                    
                                                                                                    
                                                                                                    
                                                                                                    
                                                                                                    
                                                                                                    
                                                                                                    
                                                                                                    
                                                                                                    
                           
<?xpacket end="w"?></metadata>
<defs>
    <style>
      .cls-1 {
        fill: #fff;
        fill-rule: evenodd;
      }
    </style>
  </defs>
  <path id="Forma_1" data-name="Forma 1" class="cls-1" d="M707.548,675l-2.878,0c-3.234,0-5.323,2.221-5.323,5.66v2.61h-2.894a0.461,0.461,0,0,0-.453.469v3.782a0.461,0.461,0,0,0,.453.469h2.893v9.541a0.461,0.461,0,0,0,.453.469h3.776a0.461,0.461,0,0,0,.452-0.469V687.99h3.384a0.461,0.461,0,0,0,.452-0.469l0-3.782a0.477,0.477,0,0,0-.133-0.331,0.445,0.445,0,0,0-.32-0.138h-3.385v-2.212c0-1.064.245-1.6,1.581-1.6h1.939a0.461,0.461,0,0,0,.453-0.469v-3.512A0.462,0.462,0,0,0,707.548,675Z" transform="translate(-696 -675)"/>
</svg>
