<svg xmlns="http://www.w3.org/2000/svg" width="22" height="21" viewBox="0 0 22 21">
  <metadata><?xpacket begin="﻿" id="W5M0MpCehiHzreSzNTczkc9d"?>
<x:xmpmeta xmlns:x="adobe:ns:meta/" x:xmptk="Adobe XMP Core 5.6-c138 79.159824, 2016/09/14-01:09:01        ">
   <rdf:RDF xmlns:rdf="http://www.w3.org/1999/02/22-rdf-syntax-ns#">
      <rdf:Description rdf:about=""/>
   </rdf:RDF>
</x:xmpmeta>
                                                                                                    
                                                                                                    
                                                                                                    
                                                                                                    
                                                                                                    
                                                                                                    
                                                                                                    
                                                                                                    
                                                                                                    
                                                                                                    
                                                                                                    
                                                                                                    
                                                                                                    
                                                                                                    
                                                                                                    
                                                                                                    
                                                                                                    
                                                                                                    
                                                                                                    
                                                                                                    
                           
<?xpacket end="w"?></metadata>
<defs>
    <style>
      .cls-1 {
        fill: #fff;
        fill-rule: evenodd;
      }
    </style>
  </defs>
  <path id="Forma_1" data-name="Forma 1" class="cls-1" d="M656,687.875V696h-4.716v-7.581c0-1.9-.682-3.2-2.388-3.2a2.581,2.581,0,0,0-2.42,1.723,3.233,3.233,0,0,0-.156,1.149V696H641.6s0.064-12.839,0-14.17h4.716v2.009c-0.009.015-.022,0.031-0.031,0.046h0.031v-0.046a4.686,4.686,0,0,1,4.251-2.342C653.673,681.5,656,683.523,656,687.875ZM636.669,675a2.455,2.455,0,1,0-.063,4.9h0.032A2.456,2.456,0,1,0,636.669,675Zm-2.389,21H639V681.83H634.28V696Z" transform="translate(-634 -675)"/>
</svg>
