<svg xmlns="http://www.w3.org/2000/svg" width="14" height="22" viewBox="0 0 14 22">
  <metadata><?xpacket begin="﻿" id="W5M0MpCehiHzreSzNTczkc9d"?>
<x:xmpmeta xmlns:x="adobe:ns:meta/" x:xmptk="Adobe XMP Core 5.6-c138 79.159824, 2016/09/14-01:09:01        ">
   <rdf:RDF xmlns:rdf="http://www.w3.org/1999/02/22-rdf-syntax-ns#">
      <rdf:Description rdf:about=""/>
   </rdf:RDF>
</x:xmpmeta>
                                                                                                    
                                                                                                    
                                                                                                    
                                                                                                    
                                                                                                    
                                                                                                    
                                                                                                    
                                                                                                    
                                                                                                    
                                                                                                    
                                                                                                    
                                                                                                    
                                                                                                    
                                                                                                    
                                                                                                    
                                                                                                    
                                                                                                    
                                                                                                    
                                                                                                    
                                                                                                    
                           
<?xpacket end="w"?></metadata>
<defs>
    <style>
      .cls-1 {
        fill: #fff;
        fill-rule: evenodd;
      }
    </style>
  </defs>
  <path id="Forma_1" data-name="Forma 1" class="cls-1" d="M819.567,693.42a3.3,3.3,0,0,1-1.732-.444,1.627,1.627,0,0,1-.769-0.859,8.619,8.619,0,0,1-.207-2.464v-5.645h5.387v-3.452h-5.387V675h-3.242a8.556,8.556,0,0,1-.8,2.808,6.13,6.13,0,0,1-1.525,1.891A6.887,6.887,0,0,1,809,680.9v3.109h2.516v7.721a6.235,6.235,0,0,0,.326,2.306,4,4,0,0,0,1.169,1.505,6.109,6.109,0,0,0,2.042,1.074,8.966,8.966,0,0,0,2.754.387,11.015,11.015,0,0,0,2.56-.273A13.315,13.315,0,0,0,823,695.8v-3.467A6.32,6.32,0,0,1,819.567,693.42Z" transform="translate(-809 -675)"/>
</svg>
