<svg xmlns="http://www.w3.org/2000/svg" width="176.362" height="123.807" viewBox="0 0 176.362 123.807"><defs><style>.a{fill:#5c5872;}</style></defs><g transform="translate(-963.06 -209.194)"><path class="a" d="M46.246,61.035V80.516H60.834V61.035H70.59v48.687H60.834V90.241H46.246v19.481H36.49V61.035Z" transform="translate(926.569 148.159)"/><path class="a" d="M94.055,61.035V70.76H74.6v9.756H89.193v9.725H74.6v9.725H94.055v9.756H64.847V61.035Z" transform="translate(937.137 148.159)"/><path class="a" d="M99.176,61.035V99.967h19.451v9.756h-29.2V61.035Z" transform="translate(946.295 148.159)"/><path class="a" d="M123.09,61.035V99.967H142.54v9.756H113.334V61.035Z" transform="translate(955.206 148.159)"/><path class="a" d="M145.244,61.035,144,76.83h-7.309l-1.208-15.8Z" transform="translate(963.462 148.159)"/><path class="a" d="M77.415,154.213a4.964,4.964,0,0,0,4.924-4.924c0-2.084-.815-3.412-2.478-4.016-3.5-1.3-2.656-1-6.07-2.174a19.431,19.431,0,0,1-9.152-6.736,11.06,11.06,0,0,1-1.993-6.736,14.757,14.757,0,0,1,25.219-10.42,14.214,14.214,0,0,1,4.35,10.42H82.4a4.908,4.908,0,0,0-9.816.03,4.418,4.418,0,0,0,2.115,3.986c2.9,1.874,2.567,1.511,6.04,2.538a18.769,18.769,0,0,1,9.454,6.4,10.741,10.741,0,0,1,2.054,6.764A14.757,14.757,0,0,1,67.027,159.8a14.236,14.236,0,0,1-4.35-10.451h9.846a4.924,4.924,0,0,0,4.922,4.924Z" transform="translate(936.317 168.217)"/><path class="a" d="M87.463,115.1h9.754v48.688H87.463Z" transform="translate(945.565 168.307)"/><path class="a" d="M127.294,142.257V115.346h9.756V164.94l-29.206-27.847v26.941H98.088V114.44Z" transform="translate(949.525 168.061)"/><path class="a" d="M153.723,115.016a23.654,23.654,0,0,1,9.544,1.933,26.083,26.083,0,0,1,7.883,5.255L164.2,129.15a14.316,14.316,0,0,0-10.421-4.349,14.119,14.119,0,0,0-10.42,4.349,14.74,14.74,0,0,0,10.42,25.16,14.128,14.128,0,0,0,8.578-2.748,14.83,14.83,0,0,0,5.316-7.068H153.753v-9.816h24.1a23.176,23.176,0,0,1,.482,4.892,24.6,24.6,0,0,1-42.012,17.367,24.63,24.63,0,0,1,17.367-42.012Z" transform="translate(961.084 168.242)"/></g></svg>